<?xml version="1.0" ?><!DOCTYPE svg  PUBLIC '-//W3C//DTD SVG 1.1//EN'  'http://www.w3.org/Graphics/SVG/1.1/DTD/svg11.dtd'><svg enable-background="new 0 0 128 128" height="128px" id="Layer_1" version="1.1" viewBox="0 0 128 128" width="128px" xml:space="preserve" xmlns="http://www.w3.org/2000/svg" xmlns:xlink="http://www.w3.org/1999/xlink"><g><path d="M125.678,56.259L104,39.44V20c0-1.1-0.9-2-2-2H90c-1.1,0-2,0.9-2,2v7.026L67.678,11.259c-2.164-1.679-5.191-1.679-7.354,0   l-58,45c-2.618,2.032-3.094,5.801-1.063,8.418c2.031,2.617,5.799,3.095,8.418,1.062L61,25.922c0,0,1.45-1.288,3-1.288   s2.998,1.286,2.998,1.286l51.324,39.82c1.094,0.849,2.389,1.26,3.674,1.26c1.79,0,3.562-0.798,4.744-2.322   C128.771,62.06,128.296,58.291,125.678,56.259z"/><path d="M110.42,67.016l-44.84-34.79c-0.869-0.674-2.291-0.674-3.16,0l-44.84,34.79C16.71,67.689,16,69.143,16,70.241V116   c0,1.1,0.9,2,2,2h32c1.1,0,2-0.9,2-2V84c0-1.1,0.9-2,2-2h20c1.1,0,2,0.9,2,2v32c0,1.1,0.9,2,2,2h32c1.1,0,2-0.9,2-2V70.241   C112,69.143,111.289,67.689,110.42,67.016z"/></g></svg>