<?xml version="1.0" ?><!DOCTYPE svg  PUBLIC '-//W3C//DTD SVG 1.1//EN'  'http://www.w3.org/Graphics/SVG/1.1/DTD/svg11.dtd'><svg enable-background="new 0 0 512 506.1" id="i15_1_" version="1.1" viewBox="0 0 512 506.1" xml:space="preserve" xmlns="http://www.w3.org/2000/svg" xmlns:xlink="http://www.w3.org/1999/xlink"><path d="M491.9,237.8c-16.6-5.9-98.6-21-122.9-25.4c-3.2-0.6-6-1.8-8.6-3.8c-18-13.5-76.9-55.6-113.7-55.6h-91.8  c-35.8,0-65.2,27.3-82.9,51.9c-7.1,9.9-18.8,15.5-31,15.5H20.8C1,220.4,0,264.4,0,273.2c0,28.7,7.6,45.1,20.8,45.1h32.3  c7,21.4,27,37,50.7,37c23.7,0,43.7-15.6,50.7-37h187.1c7,21.4,27,37,50.7,37c23.7,0,43.7-15.6,50.7-37h44.8  c11.8,0,20.5-9.5,23.2-25.5C514.3,274.2,509.3,243.9,491.9,237.8z M103.8,332.5c-17,0-30.8-13.8-30.8-30.8c0-17,13.8-30.9,30.8-30.9  c17,0,30.9,13.8,30.9,30.9C134.7,318.7,120.8,332.5,103.8,332.5z M110.5,221.3c0-10.5,17.5-49.7,41.1-49.7c4.9,0,26.8,0,41.3,0  l1.7,49.7C168.3,221.3,132.5,221.3,110.5,221.3z M223.6,221.3l-10.3-49.7c18,0,26.7,0,38.4,0c35,0,82.5,49.7,82.5,49.7  S286.8,221.3,223.6,221.3z M392.4,333.2c-17.4,0-31.6-14.2-31.6-31.6c0-17.4,14.2-31.6,31.6-31.6c17.4,0,31.6,14.2,31.6,31.6  C424,319.1,409.8,333.2,392.4,333.2z"/></svg>