<?xml version="1.0" ?>
<!DOCTYPE svg  PUBLIC '-//W3C//DTD SVG 1.1//EN'  'http://www.w3.org/Graphics/SVG/1.1/DTD/svg11.dtd'>
<svg height="512px" id="Icons" style="enable-background:new 0 0 512 512;" version="1.1" viewBox="0 0 512 512" width="512px" xml:space="preserve" xmlns="http://www.w3.org/2000/svg" xmlns:xlink="http://www.w3.org/1999/xlink">
    <style type="text/css">
    <![CDATA[ .st0 {
        fill: none;
    }
    
    .st1 {
        fill: white;
    }
    
    ]]>
    </style>
    <g>
        <g>
            <path class="st1" d="M309.341,242.202c-52.675-13.793-78.714,6.016-92.396,38.811l152.255,42.478     C374.479,287.611,362.55,256.135,309.341,242.202z" />
            <path class="st1" d="M372.928,435.62c0.287,0.407,0.592,1.027,0.889,1.027c5.886,8,13.529,14,22.301,18     c4.443,2,9.169,3.646,14.104,4.493c3.233,0.555,6.527,0.751,9.789,0.751c8.477,0,16.561-1.244,23.856-5.244     c4.136-1.997,8.019-4.064,11.569-6.836l0.017,0.157c10.953-8.561,18.776-21.068,21.287-35.695     c4.429-25.825-9.164-50.637-31.628-61.554c-4.768-2.317-9.927-4.021-15.407-4.962c-3.233-0.555-6.526-0.836-9.788-0.836     c-8.254,0-16.135,1.747-23.279,4.901l-0.016-0.004c-17.182,7.591-30.072,23.379-33.433,42.966     C360.584,407.95,364.042,423.055,372.928,435.62z M396.738,398.536c1.947-11.349,11.694-19.58,23.178-19.58     c1.338,0,2.562,0.119,3.898,0.348c2.248,0.386,5.186,1,6.186,1.951v-0.009c10,4.47,14.866,14.67,13.056,25.227     c-1.026,5.978-4.163,10.927-8.63,14.43c-4.014,3.147-9.014,5.105-14.449,5.105c-1.338,0-2.679-0.068-4.016-0.298     c-6.204-1.064-11.613-4.458-15.247-9.597C397.079,410.975,395.673,404.741,396.738,398.536z" />
            <path class="st1" d="M133.863,435.166l0.065,0.031c0.116,0.182,0.227,0.382,0.347,0.552     c8.884,12.563,22.128,20.937,37.293,23.539c3.234,0.555,6.528,0.677,9.791,0.677c8.476,0,16.56-1.318,23.856-5.318     c8.842-4,16.515-10,22.302-18c5.273-7,8.986-15.306,10.572-24.544c2.104-12.269,0.127-24.134-4.921-34.568     c-3.522-7.281-8.544-13.776-14.739-19.019c-7.581-6.415-16.904-10.961-27.379-12.759c-3.233-0.555-6.526-0.836-9.788-0.836     c-28.113,0-51.97,20.133-56.727,47.87c-1.028,5.991-1.096,11.996-0.271,17.846c0.001,0,0.002,0.001,0.004,0.001     C125.499,419.351,128.739,427.723,133.863,435.166z M158.086,398.548c1.946-11.349,11.694-19.585,23.177-19.585     c1.338,0,2.695,0.116,4.032,0.346c12.807,2.197,21.439,14.405,19.245,27.208c-1.949,11.35-11.697,19.588-23.18,19.588     c-1.339,0-2.696-0.117-4.034-0.346c-6.204-1.064-11.622-4.481-15.256-9.62C158.436,411,157.021,404.753,158.086,398.548z" />
            <path class="st1" d="M144.874,226.14l23.706,37.104c3.277,5.129,8.72,8.03,14.371,8.286c0.271,0.012,0.542,0.025,0.814,0.025     c3.316,0,6.672-0.916,9.674-2.834c8.377-5.353,10.829-16.482,5.477-24.86L81.659,60.332c-5.353-8.376-16.483-10.83-24.86-5.477     s-10.829,16.482-5.477,24.86L144.874,226.14z" />
            <path class="st1" d="M251.338,436.831h97.37c-7.218-14.719-9.649-31.276-6.821-47.748c3.26-19.002,13.099-35.385,26.942-46.99     l-189.718-52.93c-9.902-2.575-20.236-6.861-26.321-16.384l-20.028-31.348c-14.124-3.73-36.549-7.847-54.612-2.855     c-28.672,7.924-54.261,64.548-38.831,92.908c18.201,33.449,44.432,54.991,62.893,67.04c0.16-3.141,0.486-6.29,1.026-9.438     c6.489-37.835,39.043-65.3,77.404-65.3c4.447,0,8.934,0.383,13.335,1.138c42.704,7.327,71.488,48.032,64.168,90.737     C256.855,423.175,254.523,430.27,251.338,436.831z" />
        </g>
        <rect class="st0" height="512" width="512" />
    </g>
</svg>
