<?xml version="1.0" encoding="utf-8"?>
<!-- Generator: Adobe Illustrator 16.0.3, SVG Export Plug-In . SVG Version: 6.00 Build 0)  -->
<!DOCTYPE svg PUBLIC "-//W3C//DTD SVG 1.1//EN" "http://www.w3.org/Graphics/SVG/1.1/DTD/svg11.dtd">
<svg version="1.1" xmlns="http://www.w3.org/2000/svg" xmlns:xlink="http://www.w3.org/1999/xlink" x="0px" y="0px" width="64px"
	 height="54px" viewBox="0 0 64 54" enable-background="new 0 0 64 54" xml:space="preserve">
<g id="Layer_1">
	<g>
		<path fill="#518CC9" stroke="#FFFFFF" stroke-miterlimit="10" d="M49.455,18.598c0-9.707-7.869-17.693-17.573-17.693
			c-9.703,0-17.57,8.044-17.57,17.75c0,2.624,0.58,5.175,1.607,7.526l15.963,26.445l15.966-26.445
			C48.878,23.831,49.455,21.218,49.455,18.598z M31.887,25.608c-4.006,0-7.25-3.245-7.25-7.25c0-4.002,3.244-7.247,7.25-7.247
			c4,0,7.244,3.245,7.244,7.247C39.131,22.363,35.889,25.608,31.887,25.608z"/>
	</g>
	<g>
		<path fill="#518CC9" stroke="#FFFFFF" stroke-miterlimit="10" d="M51.662,34.385c0-5.31-4.305-9.679-9.613-9.679
			s-9.612,4.401-9.612,9.71c0,1.436,0.317,2.831,0.879,4.117L42.049,53l8.734-14.467C51.347,37.247,51.662,35.818,51.662,34.385z
			 M42.051,38.22c-2.191,0-3.965-1.775-3.965-3.966c0-2.189,1.773-3.965,3.965-3.965c2.189,0,3.963,1.775,3.963,3.965
			C46.014,36.444,44.24,38.22,42.051,38.22z"/>
	</g>
	<circle fill="#FFFFFF" cx="42.05" cy="33.882" r="3.946"/>
</g>
<g id="Layer_2">
	<circle fill="#FFFFFF" cx="31.899" cy="18.362" r="7.013"/>
	<circle fill="#FFFFFF" cx="31.884" cy="18.362" r="7.213"/>
</g>
</svg>
