<svg xmlns="http://www.w3.org/2000/svg" width="500" height="500" viewBox="0 0 500 500"><path fill="#5F4527" d="M62.64 284.39s12.886 19.687 34.232 30.86c20.712 10.838 51.87 10.604 51.87 10.604v18.362s-29.987 1.892-57.87-10.98c-29.027-13.407-41.994-38.248-41.994-38.248l13.762-10.6z"/><path fill="#806945" d="M136.666 324.492l-1.157 20.254-9.296-.815 2.6-20.157zM120.224 321.926l-8.566-2.16-5.884 20.147 9.496 2.37zM102.05 316.683L93.263 335.7l-10.435-4.935 10.444-18.507zM84.185 305.677l-13.628 16.555-8.686-7.712 14.877-15.63zM110.928 221.27l10.422 12.07v31.255h13.476v-36.253l-17.644-10.353zM347.098 217.07l-28.302 13.194v34.33h46.96v-34.33z"/><path fill="#5F4527" d="M203.165 447.28h47.917v25.708h-47.917z"/><path fill="#806945" d="M194.81 426.938h64.627v31.81H194.81z"/><path fill="#AA9275" d="M265.568 488.516h-76.886l4.454-18.487h67.972z"/><path fill="#5F4527" d="M294.535 447.28h47.912v25.708h-47.912z"/><path fill="#806945" d="M286.174 426.938h64.63v31.81h-64.63z"/><path fill="#AA9275" d="M356.932 488.516h-76.888l4.457-18.487h67.973z"/><path fill="#5F4527" d="M231.896 262.59h81.832v28.394h-81.832z"/><path fill="#806945" d="M231.896 274.223h81.832v5.132h-81.832z"/><g fill="#5F4527"><path d="M302.34 114.82h-59.05l5.396-14.93h48.232z"/><path d="M267.702 100.12l.672-14.987-13.42-11.505 22.622-13.8-8.013-4.047 1.552-37.063 2.698.127 1.388 34.922 11.04 5.72-21.51 14.283 11.675 8.12.7 18.23z"/><path d="M278.47 23.91c0 3.347-2.725 6.062-6.096 6.062-3.355 0-6.08-2.715-6.08-6.06 0-3.353 2.725-6.064 6.08-6.064 3.37 0 6.097 2.71 6.097 6.063z"/></g><path fill="#AA9275" d="M320.616 233.34v31.255h-188.2V233.34l-21.548-12.02V111.852h235.486v109.56z"/><path fill="#97846C" d="M431.786 264.595H363.18V233.34l-16.992-11.927v-109.56h85.598z"/><path fill="#5F4527" d="M167.567 177.376l-42.905-23.614s4.895-9.532 14.642-16.385c9.877-6.948 20.825-8.31 20.825-8.31l7.437 48.31z"/><path fill="#806945" d="M167.583 177.44l-9.607-50.73s3.99-.84 8.79-.918c4.79-.068 8.435.51 8.435.51l-7.617 51.137z"/><path fill="#E4D9C6" d="M204.127 177.393c0 20.05-16.304 36.3-36.44 36.3s-36.457-16.25-36.457-36.3c0-20.04 16.32-36.29 36.456-36.29 20.137 0 36.44 16.25 36.44 36.29z"/><path fill="#1D2C5C" d="M198.062 177.393c0 16.71-13.594 30.244-30.376 30.244-16.78 0-30.365-13.535-30.365-30.244 0-16.7 13.586-30.245 30.366-30.245 16.782 0 30.376 13.545 30.376 30.245z"/><path fill="#326AB3" d="M185.073 191.69c0 5.57-7.788 10.08-17.388 10.08-9.62 0-17.403-4.51-17.403-10.08 0-5.565 7.784-10.08 17.403-10.08 9.6 0 17.388 4.515 17.388 10.08z"/><path fill="#FFF" d="M162.8 164.008c0 3.443-2.8 6.237-6.245 6.237-3.454 0-6.272-2.793-6.272-6.237 0-3.44 2.818-6.228 6.272-6.228 3.445 0 6.246 2.79 6.246 6.228z"/><g><path fill="#5F4527" d="M228.61 245.225c-12.726 0-24.27-7.003-30.13-18.278-1.1-2.09-.282-4.675 1.84-5.764a4.303 4.303 0 0 1 5.8 1.827c4.368 8.426 12.997 13.647 22.49 13.647 9.494 0 18.11-5.222 22.51-13.647a4.292 4.292 0 0 1 5.794-1.827c2.102 1.088 2.938 3.673 1.832 5.764-5.86 11.275-17.413 18.278-30.137 18.278z"/></g><g><path fill="#5F4527" d="M289.646 177.376l42.907-23.614s-4.9-9.532-14.652-16.385c-9.86-6.948-20.82-8.31-20.82-8.31l-7.434 48.31z"/><path fill="#806945" d="M289.646 177.44l9.59-50.73s-3.976-.84-8.774-.918c-4.79-.068-8.436.51-8.436.51l7.62 51.137z"/><path fill="#E4D9C6" d="M253.098 177.393c0 20.05 16.313 36.3 36.454 36.3 20.123 0 36.452-16.25 36.452-36.3 0-20.04-16.33-36.29-36.452-36.29-20.14 0-36.454 16.25-36.454 36.29z"/><path fill="#1D2C5C" d="M259.173 177.393c0 16.71 13.597 30.244 30.38 30.244 16.77 0 30.36-13.535 30.36-30.244 0-16.7-13.59-30.245-30.36-30.245-16.783 0-30.38 13.545-30.38 30.245z"/><path fill="#326AB3" d="M272.146 191.69c0 5.57 7.788 10.08 17.406 10.08 9.604 0 17.383-4.51 17.383-10.08 0-5.565-7.778-10.08-17.383-10.08-9.618 0-17.406 4.515-17.406 10.08z"/><path fill="#FFF" d="M272.146 164.008c0 3.443 2.808 6.237 6.263 6.237 3.462 0 6.257-2.793 6.257-6.237 0-3.44-2.795-6.228-6.258-6.228-3.457 0-6.264 2.79-6.264 6.228z"/></g><g><path fill="#AA9275" d="M144.296 288.63H326.3v152.744H144.295z"/><path fill="#97846C" d="M325.927 288.63h75.402v152.744h-75.403z"/></g><g><path fill="#5F4527" d="M400.394 145.69h-9.838c-12.832 0-23.228 12.112-23.228 27.043 0 14.938 10.396 27.04 23.228 27.04h9.838c12.823 0 23.218-12.1 23.218-27.04 0-14.93-10.395-27.044-23.218-27.044z"/><path fill="#806945" d="M423.895 172.733c0 14.938-10.4 27.04-23.224 27.04-12.826 0-23.222-12.1-23.222-27.04 0-14.93 10.396-27.044 23.223-27.044 12.824 0 23.225 12.112 23.225 27.043z"/></g><path fill="#5F4527" d="M384.23 331.94c0 10.996-7.654 19.905-17.09 19.905-9.446 0-17.1-8.91-17.1-19.904 0-10.983 7.653-19.905 17.1-19.905 9.436 0 17.09 8.922 17.09 19.906z"/><g><path fill="#97846C" d="M49.104 253.484c-14.215 1.497-30.802 14.6-21.298 33.205 11.067 21.654 41.414 12.77 45.347.016 4.175-13.58-9.515-34.753-24.05-33.222z"/><path fill="#5F4527" d="M41.213 213.208c5.833-3.262 13.39 10.814 15.543 20.304 2.366 10.5 2.45 24.412-4.654 25.083-4.596.434-5.394-11.572-8.443-21.886-3.266-11.07-7.335-20.783-2.447-23.502zM34.62 247.523c-6.686.523-5.307 12.04-3.698 16.283 2.05 5.384 7.833 11.275 12.52 8.538 3.996-2.33 1.033-7.62-.528-13.154-1.576-5.64-2.153-12.15-8.294-11.667zM21.812 261.274c-7.097 2.583-3.11 14.054.648 17.906 3.71 3.826 10.068 5.7 13.21 2.306 2.64-2.893-2.647-7.64-4.568-10.937-1.635-2.815-2.915-11.597-9.29-9.276zM78.796 277.218c.65-9.42-14.576-10.707-20.914-8.41-6.303 2.278-11.7 8.58-9.393 13.886 1.967 4.496 10.13.883 14.887.382 4.08-.434 14.84 2.584 15.42-5.858z"/></g><g><path fill="#5F4527" d="M441.29 410.493s-5.56-22.836-21.944-40.45c-15.903-17.082-45.357-27.206-45.357-27.206l6.14-17.31s28.916 8.166 50.896 29.547c22.88 22.27 26.8 49.993 26.8 49.993l-16.536 5.426z"/><path fill="#806945" d="M384.92 348.13l7.87-18.723 8.482 3.862-9.188 18.14zM399.557 356.004l7.36 4.883 12.29-17.05-8.163-5.382zM414.946 366.975l14.654-15.018 8.17 8.113-16.026 13.992zM428.104 383.282l18.386-11.087 5.61 10.153-19.256 9.795z"/></g><g><path fill="#5F4527" d="M472.61 451.937c5.602-.612 5.332-12.67 4.308-17.108-1.29-5.605-5.657-11.722-9.777-8.812-3.51 2.495-1.433 8-.556 13.793.886 5.902.864 12.707 6.026 12.127z"/><path fill="#97846C" d="M466.514 434.284c-11.013 9.076-32.016 11.72-38.728-8.058-7.82-23.022 19.776-38.412 31.682-32.29 12.667 6.514 18.304 31.067 7.046 40.348z"/><path fill="#5F4527" d="M433.006 464.11c5.756 2.695 12.64-9.04 14.28-13.897 2.074-6.154 1.503-14.587-4.17-14.204-4.854.334-6.12 6.843-8.704 12.91-2.648 6.18-6.7 12.71-1.406 15.19zM430.692 415.87c-5.474-6.96-16.063 1.51-18.68 7.02-2.622 5.457-2.14 13.17 2.668 15.45 4.08 1.93 7.063-5.62 9.79-8.895 2.342-2.815 11.133-7.32 6.222-13.575zM459.053 462.582c5.876-.005 6.97-12.5 6.414-17.21-.694-5.936-4.51-12.756-9.098-10.205-3.915 2.18-2.398 8.113-2.148 14.183.236 6.2-.568 13.24 4.83 13.232z"/></g><g><path fill="#806945" d="M260.52 336.224c0 13.873-11.296 25.113-25.227 25.113-13.927 0-25.22-11.24-25.22-25.113s11.293-25.114 25.22-25.114c13.93 0 25.228 11.24 25.228 25.114z"/><path fill="#E4D9C6" d="M254.97 336.224c0 10.82-8.803 19.586-19.676 19.586-10.865 0-19.672-8.766-19.672-19.586 0-10.82 8.807-19.592 19.672-19.592 10.873 0 19.676 8.772 19.676 19.592z"/><path fill="#333" d="M235.294 341.784a19.655 19.655 0 0 0-15.076 7.01 19.665 19.665 0 0 0 15.076 7.016c6.063 0 11.47-2.73 15.083-7.015a19.66 19.66 0 0 0-15.083-7.01z"/><path fill="#333" d="M233.093 345.284l-2.963 1.623s-6.36-11.505-7.243-13.11c-1.554-2.812-1.614-6.404-1.614-6.404s3.043 1.998 4.583 4.773c1.16 2.114 7.237 13.118 7.237 13.118z"/></g><g><path fill="#806945" d="M174.232 307.614c0 6.777-8.463 16.836-8.463 16.836s-8.463-10.06-8.463-16.836c0-4.65 3.787-8.426 8.462-8.426s8.462 3.776 8.462 8.426z"/><path fill="#AA9275" d="M170.787 307.614c0 2.755-2.25 4.992-5.018 4.992-2.767 0-5.01-2.237-5.01-4.992 0-2.763 2.244-4.99 5.01-4.99 2.767 0 5.017 2.228 5.017 4.99z"/></g><g><path fill="#806945" d="M178.66 319.24c0-6.778 8.455-16.83 8.455-16.83s8.462 10.052 8.462 16.83c0 4.65-3.783 8.425-8.462 8.425-4.672 0-8.455-3.775-8.455-8.426z"/><path fill="#AA9275" d="M182.105 319.24c0-2.757 2.247-4.993 5.01-4.993 2.766 0 5.012 2.236 5.012 4.992 0 2.76-2.247 4.99-5.012 4.99-2.763 0-5.01-2.23-5.01-4.99z"/></g></svg>