<?xml version="1.0" encoding="utf-8"?>
<!-- Generator: Adobe Illustrator 16.0.3, SVG Export Plug-In . SVG Version: 6.00 Build 0)  -->
<!DOCTYPE svg PUBLIC "-//W3C//DTD SVG 1.1//EN" "http://www.w3.org/Graphics/SVG/1.1/DTD/svg11.dtd">
<svg version="1.1" id="Layer_1" xmlns="http://www.w3.org/2000/svg" xmlns:xlink="http://www.w3.org/1999/xlink" x="0px" y="0px"
	 width="500px" height="500px" viewBox="0 0 500 500" enable-background="new 0 0 500 500" xml:space="preserve">
<g>
	<g>
		<path fill="#5F4527" d="M62.64,284.389c0,0,12.886,19.688,34.232,30.861c20.712,10.838,51.869,10.604,51.869,10.604v18.362
			c0,0-29.986,1.892-57.869-10.981c-29.027-13.406-41.994-38.247-41.994-38.247L62.64,284.389z"/>
		<polygon fill="#806945" points="136.666,324.492 135.509,344.746 126.214,343.931 128.814,323.773 		"/>
		<polygon fill="#806945" points="120.224,321.926 111.658,319.766 105.774,339.913 115.27,342.282 		"/>
		<polygon fill="#806945" points="102.051,316.683 93.262,335.7 82.827,330.765 93.271,312.258 		"/>
		<polygon fill="#806945" points="84.185,305.677 70.557,322.232 61.871,314.52 76.747,298.89 		"/>
	</g>
	<polygon fill="#806945" points="110.928,221.271 121.35,233.341 121.35,264.595 134.826,264.595 134.826,228.342 117.182,217.989 	
		"/>
	<polygon fill="#806945" points="347.098,217.071 318.796,230.264 318.796,264.595 365.756,264.595 365.756,230.264 	"/>
	<g>
		<rect x="203.165" y="447.281" fill="#5F4527" width="47.917" height="25.707"/>
		<rect x="194.809" y="426.938" fill="#806945" width="64.628" height="31.809"/>
		<polygon fill="#AA9275" points="265.568,488.516 188.682,488.516 193.136,470.029 261.108,470.029 		"/>
	</g>
	<g>
		<rect x="294.535" y="447.281" fill="#5F4527" width="47.912" height="25.707"/>
		<rect x="286.174" y="426.938" fill="#806945" width="64.63" height="31.809"/>
		<polygon fill="#AA9275" points="356.932,488.516 280.044,488.516 284.501,470.029 352.473,470.029 		"/>
	</g>
	<g>
		<rect x="231.896" y="262.591" fill="#5F4527" width="81.832" height="28.393"/>
		<rect x="231.896" y="274.223" fill="#806945" width="81.832" height="5.132"/>
	</g>
	<g>
		<polygon fill="#5F4527" points="302.341,114.819 243.29,114.819 248.686,99.889 296.918,99.889 		"/>
		<polygon fill="#5F4527" points="267.702,100.119 268.374,85.133 254.955,73.628 277.576,59.829 269.563,55.781 271.115,18.717 
			273.813,18.844 275.201,53.766 286.239,59.487 264.731,73.769 276.405,81.891 277.105,100.119 		"/>
		<path fill="#5F4527" d="M278.471,23.911c0,3.346-2.726,6.061-6.097,6.061c-3.355,0-6.08-2.715-6.08-6.061
			c0-3.352,2.725-6.063,6.08-6.063C275.745,17.849,278.471,20.559,278.471,23.911z"/>
	</g>
	<polygon fill="#AA9275" points="320.616,233.341 320.616,264.595 132.417,264.595 132.417,233.341 110.868,221.319 
		110.868,111.853 346.354,111.853 346.354,221.413 	"/>
	<polygon fill="#97846C" points="431.786,264.595 363.181,264.595 363.181,233.341 346.188,221.413 346.188,111.853 
		431.786,111.853 	"/>
	<g>
		<g>
			<g>
				<path fill="#5F4527" d="M167.567,177.376l-42.905-23.614c0,0,4.895-9.532,14.642-16.385c9.877-6.948,20.825-8.31,20.825-8.31
					L167.567,177.376z"/>
				<path fill="#806945" d="M167.583,177.439l-9.607-50.73c0,0,3.989-0.84,8.791-0.917c4.788-0.068,8.434,0.509,8.434,0.509
					L167.583,177.439z"/>
			</g>
			<path fill="#E4D9C6" d="M204.127,177.393c0,20.05-16.304,36.299-36.441,36.299c-20.135,0-36.456-16.249-36.456-36.299
				c0-20.041,16.32-36.291,36.456-36.291C187.823,141.102,204.127,157.352,204.127,177.393z"/>
			<path fill="#1D2C5C" d="M198.062,177.393c0,16.709-13.594,30.244-30.376,30.244c-16.78,0-30.365-13.535-30.365-30.244
				c0-16.699,13.585-30.245,30.365-30.245C184.468,147.147,198.062,160.693,198.062,177.393z"/>
			<path fill="#326AB3" d="M185.073,191.69c0,5.57-7.788,10.081-17.388,10.081c-9.619,0-17.403-4.511-17.403-10.081
				c0-5.565,7.784-10.081,17.403-10.081C177.286,181.609,185.073,186.125,185.073,191.69z"/>
			<path fill="#FFFFFF" d="M162.801,164.008c0,3.443-2.801,6.237-6.246,6.237c-3.454,0-6.272-2.793-6.272-6.237
				c0-3.439,2.818-6.228,6.272-6.228C160,157.781,162.801,160.569,162.801,164.008z"/>
		</g>
		<g>
			<path fill="#5F4527" d="M228.609,245.225c-12.725,0-24.27-7.003-30.129-18.278c-1.101-2.09-0.282-4.675,1.841-5.764
				c2.105-1.098,4.7-0.273,5.798,1.827c4.369,8.426,12.998,13.647,22.49,13.647c9.495,0,18.112-5.222,22.511-13.647
				c1.091-2.1,3.67-2.924,5.794-1.827c2.102,1.088,2.938,3.673,1.832,5.764C252.887,238.222,241.333,245.225,228.609,245.225z"/>
		</g>
		<g>
			<g>
				<path fill="#5F4527" d="M289.646,177.376l42.907-23.614c0,0-4.901-9.532-14.652-16.385c-9.86-6.948-20.821-8.31-20.821-8.31
					L289.646,177.376z"/>
				<path fill="#806945" d="M289.646,177.439l9.591-50.73c0,0-3.977-0.84-8.775-0.917c-4.79-0.068-8.436,0.509-8.436,0.509
					L289.646,177.439z"/>
			</g>
			<path fill="#E4D9C6" d="M253.098,177.393c0,20.05,16.313,36.299,36.454,36.299c20.123,0,36.452-16.249,36.452-36.299
				c0-20.041-16.329-36.291-36.452-36.291C269.411,141.102,253.098,157.352,253.098,177.393z"/>
			<path fill="#1D2C5C" d="M259.173,177.393c0,16.709,13.597,30.244,30.379,30.244c16.771,0,30.362-13.535,30.362-30.244
				c0-16.699-13.592-30.245-30.362-30.245C272.77,147.147,259.173,160.693,259.173,177.393z"/>
			<path fill="#326AB3" d="M272.146,191.69c0,5.57,7.788,10.081,17.406,10.081c9.604,0,17.383-4.511,17.383-10.081
				c0-5.565-7.778-10.081-17.383-10.081C279.934,181.609,272.146,186.125,272.146,191.69z"/>
			<path fill="#FFFFFF" d="M272.146,164.008c0,3.443,2.808,6.237,6.263,6.237c3.463,0,6.258-2.793,6.258-6.237
				c0-3.439-2.795-6.228-6.258-6.228C274.953,157.781,272.146,160.569,272.146,164.008z"/>
		</g>
	</g>
	<g>
		<rect x="144.296" y="288.629" fill="#AA9275" width="182.003" height="152.745"/>
		<rect x="325.927" y="288.629" fill="#97846C" width="75.402" height="152.745"/>
	</g>
	<g>
		<path fill="#5F4527" d="M400.394,145.689c-1.691,0-8.156,0-9.838,0c-12.832,0-23.228,12.113-23.228,27.044
			c0,14.938,10.396,27.039,23.228,27.039c1.682,0,8.146,0,9.838,0c12.823,0,23.218-12.1,23.218-27.039
			C423.611,157.802,413.217,145.689,400.394,145.689z"/>
		<path fill="#806945" d="M423.895,172.733c0,14.938-10.4,27.039-23.224,27.039c-12.827,0-23.223-12.1-23.223-27.039
			c0-14.931,10.396-27.044,23.223-27.044C413.494,145.689,423.895,157.802,423.895,172.733z"/>
	</g>
	<path fill="#5F4527" d="M384.231,331.941c0,10.995-7.655,19.904-17.092,19.904c-9.445,0-17.098-8.909-17.098-19.904
		c0-10.984,7.652-19.906,17.098-19.906C376.576,312.035,384.231,320.957,384.231,331.941z"/>
	<g>
		<path fill="#97846C" d="M49.104,253.484c-14.215,1.497-30.802,14.599-21.298,33.205c11.067,21.655,41.414,12.77,45.347,0.017
			C77.328,273.127,63.638,251.953,49.104,253.484z"/>
		<path fill="#5F4527" d="M41.213,213.208c5.833-3.262,13.39,10.814,15.543,20.304c2.366,10.5,2.451,24.412-4.654,25.083
			c-4.596,0.434-5.394-11.572-8.443-21.886C40.394,225.639,36.325,215.927,41.213,213.208z"/>
		<path fill="#5F4527" d="M34.62,247.523c-6.686,0.523-5.307,12.041-3.698,16.283c2.049,5.384,7.833,11.275,12.52,8.538
			c3.996-2.33,1.033-7.619-0.528-13.154C41.338,253.549,40.761,247.04,34.62,247.523z"/>
		<path fill="#5F4527" d="M21.812,261.274c-7.097,2.583-3.109,14.054,0.648,17.906c3.711,3.826,10.068,5.701,13.21,2.306
			c2.64-2.893-2.647-7.641-4.568-10.937C29.467,267.735,28.187,258.953,21.812,261.274z"/>
		<path fill="#5F4527" d="M78.796,277.218c0.649-9.419-14.576-10.707-20.914-8.409c-6.303,2.277-11.699,8.579-9.393,13.885
			c1.968,4.496,10.132,0.883,14.888,0.382C67.456,282.642,78.216,285.66,78.796,277.218z"/>
	</g>
	<g>
		<path fill="#5F4527" d="M441.29,410.493c0,0-5.559-22.836-21.944-40.451c-15.903-17.081-45.357-27.205-45.357-27.205l6.14-17.31
			c0,0,28.917,8.166,50.897,29.547c22.879,22.27,26.799,49.993,26.799,49.993L441.29,410.493z"/>
		<polygon fill="#806945" points="384.921,348.131 392.789,329.407 401.272,333.269 392.084,351.41 		"/>
		<polygon fill="#806945" points="399.557,356.004 406.917,360.887 419.207,343.836 411.044,338.455 		"/>
		<polygon fill="#806945" points="414.946,366.975 429.6,351.957 437.771,360.07 421.744,374.062 		"/>
		<polygon fill="#806945" points="428.104,383.282 446.49,372.195 452.101,382.348 432.844,392.143 		"/>
	</g>
	<g>
		<path fill="#5F4527" d="M472.61,451.937c5.602-0.612,5.332-12.67,4.308-17.108c-1.289-5.604-5.657-11.721-9.777-8.811
			c-3.511,2.495-1.434,8.001-0.557,13.793C467.47,445.712,467.448,452.517,472.61,451.937z"/>
		<path fill="#97846C" d="M466.514,434.284c-11.013,9.076-32.016,11.721-38.728-8.058c-7.82-23.022,19.776-38.412,31.682-32.29
			C472.135,400.45,477.772,425.003,466.514,434.284z"/>
		<path fill="#5F4527" d="M433.006,464.109c5.756,2.696,12.639-9.04,14.28-13.896c2.074-6.154,1.503-14.587-4.17-14.204
			c-4.854,0.335-6.121,6.844-8.704,12.911C431.764,455.099,427.711,461.629,433.006,464.109z"/>
		<path fill="#5F4527" d="M430.692,415.87c-5.474-6.96-16.063,1.511-18.681,7.019c-2.621,5.458-2.139,13.171,2.669,15.452
			c4.08,1.928,7.063-5.622,9.789-8.896C426.812,426.63,435.603,422.125,430.692,415.87z"/>
		<path fill="#5F4527" d="M459.053,462.582c5.876-0.005,6.969-12.5,6.414-17.211c-0.694-5.935-4.51-12.755-9.098-10.204
			c-3.914,2.179-2.397,8.113-2.147,14.183C454.458,455.549,453.654,462.591,459.053,462.582z"/>
	</g>
	<g>
		<path fill="#806945" d="M260.521,336.224c0,13.873-11.297,25.113-25.228,25.113c-13.927,0-25.221-11.24-25.221-25.113
			s11.294-25.114,25.221-25.114C249.224,311.109,260.521,322.351,260.521,336.224z"/>
		<path fill="#E4D9C6" d="M254.97,336.224c0,10.82-8.803,19.586-19.676,19.586c-10.865,0-19.672-8.766-19.672-19.586
			c0-10.819,8.807-19.592,19.672-19.592C246.167,316.632,254.97,325.404,254.97,336.224z"/>
		<path fill="#333333" d="M235.294,341.784c-6.054,0-11.467,2.725-15.076,7.011c3.609,4.284,9.022,7.015,15.076,7.015
			c6.063,0,11.471-2.73,15.083-7.015C246.765,344.509,241.357,341.784,235.294,341.784z"/>
		<path fill="#333333" d="M233.093,345.284l-2.963,1.623c0,0-6.36-11.505-7.243-13.111c-1.554-2.811-1.614-6.403-1.614-6.403
			s3.043,1.998,4.583,4.773C227.015,334.28,233.093,345.284,233.093,345.284z"/>
	</g>
	<g>
		<path fill="#806945" d="M174.232,307.614c0,6.777-8.463,16.836-8.463,16.836s-8.462-10.059-8.462-16.836
			c0-4.65,3.787-8.426,8.462-8.426S174.232,302.964,174.232,307.614z"/>
		<path fill="#AA9275" d="M170.787,307.614c0,2.755-2.25,4.992-5.018,4.992c-2.766,0-5.008-2.237-5.008-4.992
			c0-2.763,2.243-4.991,5.008-4.991C168.537,302.623,170.787,304.852,170.787,307.614z"/>
	</g>
	<g>
		<path fill="#806945" d="M178.66,319.239c0-6.777,8.455-16.828,8.455-16.828s8.462,10.051,8.462,16.828
			c0,4.65-3.783,8.426-8.462,8.426C182.443,327.665,178.66,323.89,178.66,319.239z"/>
		<path fill="#AA9275" d="M182.105,319.239c0-2.756,2.247-4.992,5.01-4.992c2.766,0,5.012,2.236,5.012,4.992
			c0,2.762-2.247,4.99-5.012,4.99C184.352,324.229,182.105,322.001,182.105,319.239z"/>
	</g>
</g>
</svg>
