<svg width="26" height="33" xmlns="http://www.w3.org/2000/svg">

 <g>
  <path id="svg_1" d="m15.397,8.498c0,-3.7 -3,-6.744 -6.7,-6.744c-3.697,0 -6.697,3.066 -6.697,6.766c0,1 0.22,1.972 0.613,2.868l6.085,10.08l6.085,-10.08c0.393,-0.896 0.614,-1.89 0.614,-2.89zm-6.697,2.672a2.763,2.763 0 1 1 0,-5.526a2.763,2.763 0 0 1 0,5.526zm1.903,13.232c0,3.7 3,6.744 6.7,6.744s6.697,-3.066 6.697,-6.766c0,-1 -0.22,-1.972 -0.613,-2.868l-6.085,-10.08l-6.084,10.08a7.23,7.23 0 0 0 -0.615,2.89zm6.697,-2.672a2.762,2.762 0 1 1 0.003,5.524a2.762,2.762 0 0 1 -0.002,-5.524l-0.001,0z" fill="#FFF"/>
 </g>
</svg>