<svg xmlns="http://www.w3.org/2000/svg" width="115" height="33" viewBox="0 0 115 33"><path fill="#FFF" d="M15.397 8.498c0-3.7-3-6.744-6.7-6.744C5 1.754 2 4.82 2 8.52c0 1 .22 1.972.613 2.868l6.085 10.08 6.085-10.08c.393-.896.614-1.89.614-2.89zM8.7 11.17a2.763 2.763 0 1 1 0-5.526 2.763 2.763 0 0 1 0 5.526zM10.603 24.402c0 3.7 3 6.744 6.7 6.744S24 28.08 24 24.38c0-1-.22-1.972-.613-2.868l-6.085-10.08-6.084 10.08a7.23 7.23 0 0 0-.615 2.89zM17.3 21.73a2.762 2.762 0 1 1 .003 5.524 2.762 2.762 0 0 1-.002-5.524z"/><g><g fill="#FFF"><path d="M30.38 28.332v-18.18h2.958l.217 1.784a4.415 4.415 0 0 1 1.832-1.542 5.475 5.475 0 0 1 2.313-.52c1.287 0 2.438.296 3.45.89a6.04 6.04 0 0 1 2.33 2.413c.544 1.018.814 2.15.814 3.405 0 1.262-.25 2.395-.75 3.396a5.745 5.745 0 0 1-2.235 2.41c-.993.602-2.157.897-3.495.897-.5 0-1-.052-1.502-.15a5.41 5.41 0 0 1-1.54-.583c-.525-.287-.932-.648-1.218-1.095v6.87H30.38v.005zm3.44-11.75c0 1.02.344 1.885 1.03 2.586s1.56 1.05 2.62 1.05 1.934-.35 2.62-1.05 1.03-1.564 1.03-2.586c0-1.04-.33-1.905-.992-2.6-.66-.692-1.547-1.04-2.658-1.04-1.11 0-1.996.348-2.658 1.04-.662.696-.992 1.56-.992 2.6zM46.63 22.975V4.795h3.123v18.18H46.63zM51.975 16.355c0-1.936.62-3.518 1.86-4.744 1.24-1.227 2.888-1.84 4.944-1.84 2.208 0 3.895.678 5.065 2.03.973 1.127 1.463 2.676 1.473 4.647 0 .396-.02.814-.064 1.242H55.25c.102.813.49 1.478 1.168 1.98.678.505 1.563.76 2.654.76a5.97 5.97 0 0 0 1.916-.33c.66-.226 1.164-.512 1.512-.866l2.03 2.01c-.644.673-1.464 1.187-2.462 1.54a9.08 9.08 0 0 1-3.047.528c-2.187 0-3.903-.63-5.164-1.893-1.252-1.256-1.88-2.945-1.88-5.065zM55.3 14.81h6.92c-.102-.703-.448-1.238-1.04-1.605-.594-.367-1.354-.55-2.285-.55-.88 0-1.644.183-2.287.55-.643.366-1.08.9-1.307 1.606zM67.615 22.975V10.127h2.832l.187 1.752c1.312-1.287 2.716-1.93 4.214-1.93 1.566 0 2.865.56 3.896 1.68 1.027 1.123 1.543 2.66 1.543 4.616v6.73H77.11V16.27c0-1.016-.27-1.843-.806-2.482-.54-.64-1.303-.958-2.283-.958-.958 0-1.745.35-2.357 1.048-.615.697-.925 1.545-.925 2.545v6.552l-3.123-.002zM82.432 16.545c0-2.14.604-3.792 1.813-4.954 1.207-1.162 2.782-1.743 4.726-1.743.742 0 1.542.188 2.398.564.856.378 1.46.875 1.805 1.493V4.795h3.175v18.18h-2.96l-.215-1.772c-.88 1.377-2.254 2.063-4.127 2.063-1.935 0-3.52-.604-4.757-1.81s-1.858-2.845-1.858-4.91zm3.173 0c0 1.098.348 2 1.043 2.705.697.705 1.563 1.06 2.6 1.06s1.918-.35 2.645-1.04c.73-.692 1.088-1.602 1.088-2.725 0-1.09-.36-1.987-1.095-2.688-.73-.7-1.61-1.052-2.637-1.052-1.045 0-1.912.34-2.605 1.02-.692.68-1.038 1.587-1.038 2.72zM99.006 7.455a1.92 1.92 0 0 1-.21-.908c0-.338.07-.64.21-.908.14-.268.318-.47.54-.61a2.5 2.5 0 0 1 .722-.31c.137-.035.27-.052.396-.052.135 0 .27.017.404.05.27.07.516.172.73.313.216.14.394.344.532.61.14.267.21.568.21.907 0 .34-.07.64-.21.908-.143.266-.318.47-.54.608-.222.14-.462.24-.726.306a1.687 1.687 0 0 1-.793 0 2.316 2.316 0 0 1-.728-.307 1.553 1.553 0 0 1-.536-.608zm.082 15.52h3.174V10.1h-3.174v12.875zM104 12.907v-2.883h2.412v-3.3l3.148-.33v3.63h3.564v2.884h-3.594v5.527c0 .59.146 1.04.447 1.35.305.31.705.46 1.213.46.482 0 .994-.13 1.535-.394l.893 2.728a7.622 7.622 0 0 1-2.627.55h-.253c-1.29 0-2.322-.372-3.1-1.114-.822-.798-1.23-1.98-1.23-3.557V12.91H104v-.003z"/></g></g></svg>