<?xml version="1.0" encoding="utf-8"?>
<!-- Generator: Adobe Illustrator 16.0.3, SVG Export Plug-In . SVG Version: 6.00 Build 0)  -->
<!DOCTYPE svg PUBLIC "-//W3C//DTD SVG 1.1//EN" "http://www.w3.org/Graphics/SVG/1.1/DTD/svg11.dtd">
<svg version="1.1" xmlns="http://www.w3.org/2000/svg" xmlns:xlink="http://www.w3.org/1999/xlink" x="0px" y="0px" width="115px"
	 height="33px" viewBox="0 0 115 33" enable-background="new 0 0 115 33" xml:space="preserve">
<g id="Layer_2_2_" display="none">
	<rect x="-9" y="-9" display="inline" fill="#23A4DE" width="133" height="52"/>
</g>
<g id="Layer_1">
	<g id="Layer_2_1_" display="none">
		
			<rect x="-92.279" y="-14.279" display="inline" fill="#49B0E4" stroke="#000000" stroke-miterlimit="10" width="277" height="146"/>
	</g>
	<g id="Layer_2">
		<path fill="none" stroke="#FFFFFF" stroke-width="3.4109" stroke-linecap="round" stroke-miterlimit="10" d="M11.125,71.637
			c0,0,7.269-6.578,9.178-8.484c1.908-1.909,2.253-5.381,0-7.637C18.049,53.264,15.308,53,12.871,53"/>
		<path fill="none" stroke="#FFFFFF" stroke-width="3.4109" stroke-linecap="round" stroke-miterlimit="10" d="M6.229,63.973
			c-0.341-0.322-0.63-0.604-0.848-0.82c-1.909-1.909-2.254-5.381,0-7.637C7.634,53.264,10.376,53,12.812,53"/>
		<path fill="none" stroke="#FFFFFF" stroke-width="3.4109" stroke-linecap="round" stroke-miterlimit="10" d="M14.558,62.135
			c0,0-7.27,6.58-9.178,8.488c-1.909,1.906-2.254,5.381,0,7.635c2.253,2.252,4.995,2.516,7.431,2.516"/>
		<path fill="none" stroke="#FFFFFF" stroke-width="3.4109" stroke-linecap="round" stroke-miterlimit="10" d="M19.455,69.801
			c0.341,0.324,0.629,0.604,0.848,0.822c1.908,1.906,2.253,5.381,0,7.635c-2.254,2.252-4.995,2.516-7.432,2.516"/>
	</g>
	<g>
		<path fill="#FFFFFF" d="M15.397,8.498c0-3.7-3-6.744-6.699-6.744C4.999,1.754,2,4.82,2,8.52c0,1,0.221,1.972,0.613,2.868
			l6.085,10.08l6.085-10.08C15.176,10.492,15.397,9.497,15.397,8.498z M8.699,11.17c-1.526,0-2.763-1.237-2.763-2.763
			s1.237-2.763,2.763-2.763c1.525,0,2.762,1.237,2.762,2.763S10.224,11.17,8.699,11.17z"/>
	</g>
	<path fill="#FFFFFF" d="M10.603,24.402c0,3.699,3,6.744,6.699,6.744c3.7,0,6.699-3.067,6.699-6.767c0-1-0.221-1.971-0.614-2.867
		l-6.085-10.08l-6.084,10.08C10.824,22.409,10.603,23.402,10.603,24.402z M17.301,21.73c1.526,0,2.763,1.236,2.763,2.762
		c0,1.526-1.237,2.763-2.763,2.763c-1.525,0-2.763-1.236-2.763-2.763C14.539,22.967,15.776,21.73,17.301,21.73z"/>
</g>
<g id="Layer_3">
	<g id="Layer_1_1_">
		<g enable-background="new    ">
			<path fill="#FFFFFF" d="M30.38,28.332V10.151h2.958l0.217,1.785c0.465-0.68,1.074-1.192,1.832-1.542
				c0.756-0.348,1.526-0.521,2.313-0.521c1.287,0,2.438,0.297,3.449,0.89c1.013,0.593,1.791,1.397,2.332,2.414
				c0.543,1.018,0.813,2.151,0.813,3.405c0,1.262-0.25,2.395-0.75,3.396c-0.5,1.01-1.245,1.813-2.235,2.41
				c-0.992,0.602-2.156,0.897-3.494,0.897c-0.5,0-1-0.052-1.502-0.149c-0.502-0.1-1.017-0.296-1.541-0.584
				c-0.524-0.287-0.931-0.648-1.217-1.095v6.869H30.38V28.332z M33.82,16.582c0,1.021,0.344,1.885,1.031,2.586
				s1.56,1.051,2.619,1.051c1.061,0,1.934-0.35,2.62-1.051s1.03-1.564,1.03-2.586c0-1.039-0.331-1.905-0.992-2.601
				c-0.661-0.691-1.547-1.039-2.658-1.039c-1.111,0-1.996,0.348-2.658,1.039C34.15,14.678,33.82,15.543,33.82,16.582z"/>
			<path fill="#FFFFFF" d="M46.63,22.975V4.795h3.123v18.18H46.63z"/>
			<path fill="#FFFFFF" d="M51.975,16.355c0-1.936,0.621-3.518,1.86-4.744c1.24-1.228,2.888-1.841,4.944-1.841
				c2.209,0,3.896,0.678,5.066,2.031c0.973,1.126,1.463,2.675,1.473,4.646c0,0.396-0.021,0.814-0.064,1.242H55.25
				c0.102,0.814,0.491,1.479,1.168,1.98c0.678,0.506,1.563,0.762,2.654,0.762c0.617,0,1.256-0.109,1.916-0.332
				c0.66-0.225,1.164-0.511,1.512-0.865l2.031,2.009c-0.645,0.674-1.465,1.188-2.463,1.541c-1,0.354-2.019,0.528-3.047,0.528
				c-2.188,0-3.904-0.631-5.165-1.893C52.604,20.164,51.975,18.475,51.975,16.355z M55.301,14.811h6.92
				c-0.103-0.704-0.449-1.239-1.041-1.606c-0.594-0.367-1.354-0.551-2.285-0.551c-0.881,0-1.644,0.184-2.287,0.551
				C55.965,13.571,55.529,14.106,55.301,14.811z"/>
			<path fill="#FFFFFF" d="M67.615,22.975V10.127h2.832l0.187,1.752c1.312-1.286,2.716-1.93,4.214-1.93
				c1.566,0,2.865,0.562,3.896,1.682c1.027,1.122,1.543,2.66,1.543,4.615v6.729h-3.176v-6.703c0-1.016-0.271-1.843-0.807-2.482
				c-0.539-0.64-1.303-0.958-2.283-0.958c-0.959,0-1.746,0.349-2.358,1.048c-0.615,0.697-0.925,1.545-0.925,2.545v6.552
				L67.615,22.975L67.615,22.975z"/>
			<path fill="#FFFFFF" d="M82.432,16.545c0-2.14,0.604-3.792,1.813-4.954c1.207-1.163,2.782-1.744,4.726-1.744
				c0.741,0,1.541,0.188,2.397,0.564c0.856,0.377,1.459,0.874,1.805,1.492V4.795h3.175v18.18h-2.959l-0.216-1.772
				c-0.879,1.377-2.254,2.063-4.127,2.063c-1.935,0-3.521-0.604-4.757-1.811S82.432,18.611,82.432,16.545z M85.605,16.545
				c0,1.098,0.348,2,1.043,2.705c0.697,0.705,1.563,1.059,2.6,1.059s1.918-0.348,2.645-1.039c0.729-0.692,1.088-1.602,1.088-2.725
				c0-1.09-0.361-1.987-1.096-2.688c-0.73-0.7-1.609-1.052-2.637-1.052c-1.045,0-1.912,0.34-2.605,1.021
				C85.951,14.506,85.605,15.412,85.605,16.545z"/>
			<path fill="#FFFFFF" d="M99.006,7.455c-0.141-0.269-0.211-0.57-0.211-0.908c0-0.338,0.07-0.641,0.211-0.908
				c0.139-0.267,0.318-0.47,0.539-0.608c0.219-0.141,0.461-0.243,0.723-0.312c0.137-0.034,0.271-0.051,0.396-0.051
				c0.135,0,0.271,0.017,0.404,0.051c0.271,0.068,0.516,0.171,0.729,0.312c0.217,0.14,0.395,0.343,0.533,0.608
				c0.141,0.268,0.209,0.569,0.209,0.908c0,0.339-0.068,0.641-0.209,0.908c-0.143,0.266-0.318,0.469-0.541,0.608
				c-0.221,0.14-0.461,0.24-0.725,0.306c-0.264,0.063-0.525,0.063-0.793,0c-0.27-0.064-0.512-0.166-0.729-0.306
				C99.324,7.924,99.145,7.721,99.006,7.455z M99.088,22.975h3.174V10.101h-3.174V22.975z"/>
			<path fill="#FFFFFF" d="M104,12.907v-2.883h2.412v-3.3l3.148-0.33v3.631h3.564v2.883h-3.594v5.527c0,0.59,0.146,1.039,0.447,1.35
				c0.305,0.309,0.705,0.461,1.213,0.461c0.482,0,0.994-0.131,1.535-0.395l0.893,2.727c-0.85,0.342-1.727,0.523-2.627,0.551
				c-0.086,0-0.17,0-0.254,0c-1.291,0-2.322-0.373-3.1-1.115c-0.822-0.798-1.23-1.979-1.23-3.557v-5.548H104V12.907z"/>
		</g>
	</g>
</g>
</svg>
