<?xml version="1.0" encoding="utf-8"?>
<!-- Generator: Adobe Illustrator 16.0.3, SVG Export Plug-In . SVG Version: 6.00 Build 0)  -->
<!DOCTYPE svg PUBLIC "-//W3C//DTD SVG 1.1//EN" "http://www.w3.org/Graphics/SVG/1.1/DTD/svg11.dtd">
<svg version="1.1" id="Layer_1" xmlns="http://www.w3.org/2000/svg" xmlns:xlink="http://www.w3.org/1999/xlink" x="0px" y="0px"
	 width="64px" height="54px" viewBox="0 0 64 54" enable-background="new 0 0 64 54" xml:space="preserve">
<g>
	<path fill="#518CC9" d="M49.455,18.598c0-9.707-7.869-17.693-17.573-17.693c-9.703,0-17.57,8.044-17.57,17.75
		c0,2.624,0.58,5.175,1.607,7.526l15.963,26.445l15.965-26.445C48.878,23.831,49.455,21.218,49.455,18.598z M31.887,25.608
		c-4.006,0-7.25-3.245-7.25-7.25c0-4.002,3.244-7.247,7.25-7.247c4,0,7.244,3.245,7.244,7.247
		C39.131,22.363,35.888,25.608,31.887,25.608z"/>
</g>
</svg>
