<?xml version="1.0" encoding="utf-8"?>
<!-- Generator: Adobe Illustrator 16.0.3, SVG Export Plug-In . SVG Version: 6.00 Build 0)  -->
<!DOCTYPE svg PUBLIC "-//W3C//DTD SVG 1.1//EN" "http://www.w3.org/Graphics/SVG/1.1/DTD/svg11.dtd">
<svg version="1.1" xmlns="http://www.w3.org/2000/svg" xmlns:xlink="http://www.w3.org/1999/xlink" x="0px" y="0px" width="22px"
	 height="22px" viewBox="0 0 22 22" enable-background="new 0 0 22 22" xml:space="preserve">
<g id="Layer_1" display="none">
	<path display="inline" fill="#FCB415" d="M15.519,13.167l6.18-4.402c0.334-0.238,0.166-0.767-0.246-0.767h-7.645L11.42,0.667
		c-0.125-0.389-0.675-0.389-0.803,0l-2.4,7.332h-7.67c-0.411,0-0.58,0.528-0.245,0.767l6.19,4.412l-2.392,7.271
		c-0.129,0.393,0.317,0.715,0.649,0.473l6.246-4.547l6.256,4.568c0.332,0.24,0.777-0.084,0.65-0.475L15.519,13.167z"/>
</g>
<g id="Layer_2">
	<path fill="#FCB415" d="M15.507,13.169l6.181-4.401C22.022,8.528,21.854,8,21.442,8h-7.648l-2.386-7.334
		c-0.126-0.389-0.676-0.389-0.803,0L8.205,8H0.532c-0.411,0-0.58,0.528-0.246,0.768l6.192,4.412l-2.392,7.273
		c-0.128,0.39,0.318,0.716,0.649,0.474l6.248-4.55l6.256,4.568c0.333,0.243,0.779-0.082,0.652-0.473L15.507,13.169z"/>
	<path fill="#CACCCC" d="M15.51,13.169l6.181-4.401C22.025,8.528,21.857,8,21.445,8h-7.648l-2.386-7.334
		c-0.063-0.194-0.4-0.291-0.4-0.291l-0.024,16.002l6.257,4.568c0.332,0.243,0.778-0.082,0.651-0.473L15.51,13.169z"/>
</g>
<g id="Layer_3" display="none">
	<path display="inline" fill="#CACCCC" d="M15.527,13.174l6.197-4.41c0.336-0.24,0.166-0.769-0.248-0.769h-7.664l-2.391-7.35
		c-0.126-0.39-0.678-0.39-0.805,0l-2.405,7.35H0.522c-0.413,0-0.582,0.529-0.247,0.769l6.206,4.422l-2.398,7.289
		c-0.128,0.391,0.319,0.719,0.652,0.475l6.261-4.561l6.269,4.58c0.334,0.242,0.783-0.082,0.654-0.475L15.527,13.174z"/>
</g>
</svg>
